<?xml version="1.0" encoding="UTF-8" standalone="no"?>
<!-- Created with Inkscape (http://www.inkscape.org/) -->

<svg
   xmlns:dc="http://purl.org/dc/elements/1.1/"
   xmlns:cc="http://creativecommons.org/ns#"
   xmlns:rdf="http://www.w3.org/1999/02/22-rdf-syntax-ns#"
   xmlns:svg="http://www.w3.org/2000/svg"
   xmlns="http://www.w3.org/2000/svg"
   xmlns:sodipodi="http://sodipodi.sourceforge.net/DTD/sodipodi-0.dtd"
   xmlns:inkscape="http://www.inkscape.org/namespaces/inkscape"
   width="261.74228"
   height="261.74228"
   id="svg2"
   version="1.1"
   inkscape:version="0.48.4 r9939"
   sodipodi:docname="drawing.pdf">
  <defs
     id="defs4" />
  <sodipodi:namedview
     id="base"
     pagecolor="#ffffff"
     bordercolor="#666666"
     borderopacity="1.0"
     inkscape:pageopacity="0.0"
     inkscape:pageshadow="2"
     inkscape:zoom="1.979899"
     inkscape:cx="11.144731"
     inkscape:cy="118.43027"
     inkscape:document-units="px"
     inkscape:current-layer="layer1"
     showgrid="false"
     fit-margin-top="0"
     fit-margin-left="0"
     fit-margin-right="0"
     fit-margin-bottom="0"
     inkscape:window-width="1596"
     inkscape:window-height="861"
     inkscape:window-x="0"
     inkscape:window-y="37"
     inkscape:window-maximized="0" />
  <metadata
     id="metadata7">
    <rdf:RDF>
      <cc:Work
         rdf:about="">
        <dc:format>image/svg+xml</dc:format>
        <dc:type
           rdf:resource="http://purl.org/dc/dcmitype/StillImage" />
        <dc:title></dc:title>
      </cc:Work>
    </rdf:RDF>
  </metadata>
  <g
     inkscape:label="Layer 1"
     inkscape:groupmode="layer"
     id="layer1"
     transform="translate(-282.0287,-723.24861)">
    <path
       sodipodi:type="arc"
       style="opacity:0.3;fill:#cccccc;fill-opacity:1;stroke:#000000;stroke-width:1.62800002;stroke-miterlimit:4;stroke-opacity:1;stroke-dasharray:none;stroke-dashoffset:0"
       id="path2991"
       sodipodi:cx="412.89984"
       sodipodi:cy="854.11975"
       sodipodi:rx="130.05714"
       sodipodi:ry="130.05714"
       d="m 542.95699,854.11975 c 0,71.82858 -58.22857,130.05715 -130.05715,130.05715 -71.82858,0 -130.05714,-58.22857 -130.05714,-130.05715 0,-71.82858 58.22856,-130.05714 130.05714,-130.05714 71.82858,0 130.05715,58.22856 130.05715,130.05714 z" />
    <path
       sodipodi:type="arc"
       style="opacity:0.3;fill:#c3ffff;fill-opacity:1;stroke:#000000;stroke-width:1.62843823;stroke-miterlimit:4;stroke-opacity:1;stroke-dasharray:none;stroke-dashoffset:0"
       id="path2993"
       sodipodi:cx="412.64731"
       sodipodi:cy="860.93829"
       sodipodi:rx="28.789347"
       sodipodi:ry="28.789347"
       d="m 441.43666,860.93829 c 0,15.89992 -12.88943,28.78935 -28.78935,28.78935 -15.89992,0 -28.78935,-12.88943 -28.78935,-28.78935 0,-15.89991 12.88943,-28.78934 28.78935,-28.78934 15.89992,0 28.78935,12.88943 28.78935,28.78934 z" />
    <path
       sodipodi:type="arc"
       style="opacity:0.3;fill:#000000;fill-opacity:1;stroke:#000000;stroke-width:1.62800002;stroke-miterlimit:4;stroke-opacity:1;stroke-dasharray:none;stroke-dashoffset:0"
       id="path3779"
       sodipodi:cx="109.34901"
       sodipodi:cy="795.53088"
       sodipodi:rx="3.2829957"
       sodipodi:ry="3.2829957"
       d="m 112.632,795.53088 c 0,1.81315 -1.46984,3.283 -3.28299,3.283 -1.81315,0 -3.283,-1.46985 -3.283,-3.283 0,-1.81314 1.46985,-3.28299 3.283,-3.28299 1.81315,0 3.28299,1.46985 3.28299,3.28299 z"
       transform="translate(282.33764,59.599)" />
    <path
       sodipodi:type="arc"
       style="opacity:0.3;fill:#000000;fill-opacity:1;stroke:#000000;stroke-width:1.62800002;stroke-miterlimit:4;stroke-opacity:1;stroke-dasharray:none;stroke-dashoffset:0"
       id="path3779-7"
       sodipodi:cx="109.34901"
       sodipodi:cy="795.53088"
       sodipodi:rx="3.2829957"
       sodipodi:ry="3.2829957"
       d="m 112.632,795.53088 c 0,1.81315 -1.46984,3.283 -3.28299,3.283 -1.81315,0 -3.283,-1.46985 -3.283,-3.283 0,-1.81314 1.46985,-3.28299 3.283,-3.28299 1.81315,0 3.28299,1.46985 3.28299,3.28299 z"
       transform="translate(324.00644,71.973383)" />
    <path
       sodipodi:type="arc"
       style="opacity:0.3;fill:#000000;fill-opacity:1;stroke:#000000;stroke-width:1.62800002;stroke-miterlimit:4;stroke-opacity:1;stroke-dasharray:none;stroke-dashoffset:0"
       id="path3779-6"
       sodipodi:cx="109.34901"
       sodipodi:cy="795.53088"
       sodipodi:rx="3.2829957"
       sodipodi:ry="3.2829957"
       d="m 112.632,795.53088 c 0,1.81315 -1.46984,3.283 -3.28299,3.283 -1.81315,0 -3.283,-1.46985 -3.283,-3.283 0,-1.81314 1.46985,-3.28299 3.283,-3.28299 1.81315,0 3.28299,1.46985 3.28299,3.28299 z"
       transform="translate(301.278,64.902315)" />
    <path
       sodipodi:type="arc"
       style="opacity:0.3;fill:#000000;fill-opacity:1;stroke:#000000;stroke-width:1.62800002;stroke-miterlimit:4;stroke-opacity:1;stroke-dasharray:none;stroke-dashoffset:0"
       id="path3779-9"
       sodipodi:cx="109.34901"
       sodipodi:cy="795.53088"
       sodipodi:rx="3.2829957"
       sodipodi:ry="3.2829957"
       d="m 112.632,795.53088 c 0,1.81315 -1.46984,3.283 -3.28299,3.283 -1.81315,0 -3.283,-1.46985 -3.283,-3.283 0,-1.81314 1.46985,-3.28299 3.283,-3.28299 1.81315,0 3.28299,1.46985 3.28299,3.28299 z"
       transform="translate(301.278,86.115518)" />
    <path
       sodipodi:type="arc"
       style="opacity:0.3;fill:#000000;fill-opacity:1;stroke:#000000;stroke-width:1.62800002;stroke-miterlimit:4;stroke-opacity:1;stroke-dasharray:none;stroke-dashoffset:0"
       id="path3779-1"
       sodipodi:cx="109.34901"
       sodipodi:cy="795.53088"
       sodipodi:rx="3.2829957"
       sodipodi:ry="3.2829957"
       d="m 112.632,795.53088 c 0,1.81315 -1.46984,3.283 -3.28299,3.283 -1.81315,0 -3.283,-1.46985 -3.283,-3.283 0,-1.81314 1.46985,-3.28299 3.283,-3.28299 1.81315,0 3.28299,1.46985 3.28299,3.28299 z"
       transform="translate(299.76277,76.519069)" />
    <path
       sodipodi:type="arc"
       style="opacity:0.3;fill:#000000;fill-opacity:1;stroke:#000000;stroke-width:1.62800002;stroke-miterlimit:4;stroke-opacity:1;stroke-dasharray:none;stroke-dashoffset:0"
       id="path3779-62"
       sodipodi:cx="109.34901"
       sodipodi:cy="795.53088"
       sodipodi:rx="3.2829957"
       sodipodi:ry="3.2829957"
       d="m 112.632,795.53088 c 0,1.81315 -1.46984,3.283 -3.28299,3.283 -1.81315,0 -3.283,-1.46985 -3.283,-3.283 0,-1.81314 1.46985,-3.28299 3.283,-3.28299 1.81315,0 3.28299,1.46985 3.28299,3.28299 z"
       transform="translate(297.74247,51.265256)" />
    <path
       sodipodi:type="arc"
       style="opacity:0.3;fill:#000000;fill-opacity:1;stroke:#000000;stroke-width:1.62800002;stroke-miterlimit:4;stroke-opacity:1;stroke-dasharray:none;stroke-dashoffset:0"
       id="path3779-77"
       sodipodi:cx="109.34901"
       sodipodi:cy="795.53088"
       sodipodi:rx="3.2829957"
       sodipodi:ry="3.2829957"
       d="m 112.632,795.53088 c 0,1.81315 -1.46984,3.283 -3.28299,3.283 -1.81315,0 -3.283,-1.46985 -3.283,-3.283 0,-1.81314 1.46985,-3.28299 3.283,-3.28299 1.81315,0 3.28299,1.46985 3.28299,3.28299 z"
       transform="translate(283.60033,73.488612)" />
    <path
       sodipodi:type="arc"
       style="opacity:0.3;fill:#000000;fill-opacity:1;stroke:#000000;stroke-width:1.62800002;stroke-miterlimit:4;stroke-opacity:1;stroke-dasharray:none;stroke-dashoffset:0"
       id="path3779-19"
       sodipodi:cx="109.34901"
       sodipodi:cy="795.53088"
       sodipodi:rx="3.2829957"
       sodipodi:ry="3.2829957"
       d="m 112.632,795.53088 c 0,1.81315 -1.46984,3.283 -3.28299,3.283 -1.81315,0 -3.283,-1.46985 -3.283,-3.283 0,-1.81314 1.46985,-3.28299 3.283,-3.28299 1.81315,0 3.28299,1.46985 3.28299,3.28299 z"
       transform="translate(317.44044,54.800789)" />
    <path
       sodipodi:type="arc"
       style="opacity:0.3;fill:#000000;fill-opacity:1;stroke:#000000;stroke-width:1.62800002;stroke-miterlimit:4;stroke-opacity:1;stroke-dasharray:none;stroke-dashoffset:0"
       id="path3779-8"
       sodipodi:cx="109.34901"
       sodipodi:cy="795.53088"
       sodipodi:rx="3.2829957"
       sodipodi:ry="3.2829957"
       d="m 112.632,795.53088 c 0,1.81315 -1.46984,3.283 -3.28299,3.283 -1.81315,0 -3.283,-1.46985 -3.283,-3.283 0,-1.81314 1.46985,-3.28299 3.283,-3.28299 1.81315,0 3.28299,1.46985 3.28299,3.28299 z"
       transform="translate(312.38968,85.105366)" />
    <path
       sodipodi:type="arc"
       style="opacity:0.3;fill:#000000;fill-opacity:1;stroke:#000000;stroke-width:1.62800002;stroke-miterlimit:4;stroke-opacity:1;stroke-dasharray:none;stroke-dashoffset:0"
       id="path3779-12"
       sodipodi:cx="109.34901"
       sodipodi:cy="795.53088"
       sodipodi:rx="3.2829957"
       sodipodi:ry="3.2829957"
       d="m 112.632,795.53088 c 0,1.81315 -1.46984,3.283 -3.28299,3.283 -1.81315,0 -3.283,-1.46985 -3.283,-3.283 0,-1.81314 1.46985,-3.28299 3.283,-3.28299 1.81315,0 3.28299,1.46985 3.28299,3.28299 z"
       transform="translate(283.09526,50.760179)" />
    <path
       sodipodi:type="arc"
       style="opacity:0.3;fill:#000000;fill-opacity:1;stroke:#000000;stroke-width:1.62800002;stroke-miterlimit:4;stroke-opacity:1;stroke-dasharray:none;stroke-dashoffset:0"
       id="path3779-62-0"
       sodipodi:cx="109.34901"
       sodipodi:cy="795.53088"
       sodipodi:rx="3.2829957"
       sodipodi:ry="3.2829957"
       d="m 112.632,795.53088 c 0,1.81315 -1.46984,3.283 -3.28299,3.283 -1.81315,0 -3.283,-1.46985 -3.283,-3.283 0,-1.81314 1.46985,-3.28299 3.283,-3.28299 1.81315,0 3.28299,1.46985 3.28299,3.28299 z"
       transform="translate(212.88966,-5.3032868)" />
    <path
       sodipodi:type="arc"
       style="opacity:0.3;fill:#000000;fill-opacity:1;stroke:#000000;stroke-width:1.62800002;stroke-miterlimit:4;stroke-opacity:1;stroke-dasharray:none;stroke-dashoffset:0"
       id="path3779-62-1"
       sodipodi:cx="109.34901"
       sodipodi:cy="795.53088"
       sodipodi:rx="3.2829957"
       sodipodi:ry="3.2829957"
       d="m 112.632,795.53088 c 0,1.81315 -1.46984,3.283 -3.28299,3.283 -1.81315,0 -3.283,-1.46985 -3.283,-3.283 0,-1.81314 1.46985,-3.28299 3.283,-3.28299 1.81315,0 3.28299,1.46985 3.28299,3.28299 z"
       transform="translate(292.18663,-51.265228)" />
    <path
       sodipodi:type="arc"
       style="opacity:0.3;fill:#000000;fill-opacity:1;stroke:#000000;stroke-width:1.62800002;stroke-miterlimit:4;stroke-opacity:1;stroke-dasharray:none;stroke-dashoffset:0"
       id="path3779-62-5"
       sodipodi:cx="109.34901"
       sodipodi:cy="795.53088"
       sodipodi:rx="3.2829957"
       sodipodi:ry="3.2829957"
       d="m 112.632,795.53088 c 0,1.81315 -1.46984,3.283 -3.28299,3.283 -1.81315,0 -3.283,-1.46985 -3.283,-3.283 0,-1.81314 1.46985,-3.28299 3.283,-3.28299 1.81315,0 3.28299,1.46985 3.28299,3.28299 z"
       transform="translate(420.98108,61.366781)" />
    <path
       sodipodi:type="arc"
       style="opacity:0.3;fill:#000000;fill-opacity:1;stroke:#000000;stroke-width:1.62800002;stroke-miterlimit:4;stroke-opacity:1;stroke-dasharray:none;stroke-dashoffset:0"
       id="path3779-62-6"
       sodipodi:cx="109.34901"
       sodipodi:cy="795.53088"
       sodipodi:rx="3.2829957"
       sodipodi:ry="3.2829957"
       d="m 112.632,795.53088 c 0,1.81315 -1.46984,3.283 -3.28299,3.283 -1.81315,0 -3.283,-1.46985 -3.283,-3.283 0,-1.81314 1.46985,-3.28299 3.283,-3.28299 1.81315,0 3.28299,1.46985 3.28299,3.28299 z"
       transform="translate(331.0775,163.39219)" />
  </g>
</svg>
