<?xml version="1.0" encoding="UTF-8" standalone="no"?>
<!-- Created with Inkscape (http://www.inkscape.org/) -->

<svg
   xmlns:dc="http://purl.org/dc/elements/1.1/"
   xmlns:cc="http://creativecommons.org/ns#"
   xmlns:rdf="http://www.w3.org/1999/02/22-rdf-syntax-ns#"
   xmlns:svg="http://www.w3.org/2000/svg"
   xmlns="http://www.w3.org/2000/svg"
   xmlns:sodipodi="http://sodipodi.sourceforge.net/DTD/sodipodi-0.dtd"
   xmlns:inkscape="http://www.inkscape.org/namespaces/inkscape"
   width="88.035721"
   height="34.214279"
   id="svg2"
   version="1.1"
   inkscape:version="0.48.4 r9939"
   sodipodi:docname="New document 1">
  <defs
     id="defs4" />
  <sodipodi:namedview
     id="base"
     pagecolor="#ffffff"
     bordercolor="#666666"
     borderopacity="1.0"
     inkscape:pageopacity="0.0"
     inkscape:pageshadow="2"
     inkscape:zoom="2.8"
     inkscape:cx="41.486473"
     inkscape:cy="-0.58398071"
     inkscape:document-units="px"
     inkscape:current-layer="layer1"
     showgrid="false"
     inkscape:object-paths="true"
     inkscape:snap-intersection-paths="true"
     inkscape:object-nodes="true"
     inkscape:snap-smooth-nodes="true"
     fit-margin-top="0"
     fit-margin-left="0"
     fit-margin-right="0"
     fit-margin-bottom="0"
     inkscape:window-width="1598"
     inkscape:window-height="862"
     inkscape:window-x="0"
     inkscape:window-y="37"
     inkscape:window-maximized="0" />
  <metadata
     id="metadata7">
    <rdf:RDF>
      <cc:Work
         rdf:about="">
        <dc:format>image/svg+xml</dc:format>
        <dc:type
           rdf:resource="http://purl.org/dc/dcmitype/StillImage" />
        <dc:title></dc:title>
      </cc:Work>
    </rdf:RDF>
  </metadata>
  <g
     inkscape:label="Layer 1"
     inkscape:groupmode="layer"
     id="layer1"
     transform="translate(-125.92857,-382.57647)">
    <g
       id="g3829">
      <path
         d="m 135.71428,387.71933 c 0,2.56418 -2.07867,4.64286 -4.64285,4.64286 -2.56418,0 -4.64286,-2.07868 -4.64286,-4.64286 0,-2.56418 2.07868,-4.64286 4.64286,-4.64286 2.56418,0 4.64285,2.07868 4.64285,4.64286 z"
         sodipodi:ry="4.6428571"
         sodipodi:rx="4.6428571"
         sodipodi:cy="387.71933"
         sodipodi:cx="131.07143"
         id="path2987"
         style="fill:#ffffff;fill-opacity:1;stroke:#000000;stroke-width:1;stroke-miterlimit:4;stroke-opacity:1;stroke-dasharray:none;stroke-dashoffset:0"
         sodipodi:type="arc" />
      <path
         d="m 135.71428,387.71933 c 0,2.56418 -2.07867,4.64286 -4.64285,4.64286 -2.56418,0 -4.64286,-2.07868 -4.64286,-4.64286 0,-2.56418 2.07868,-4.64286 4.64286,-4.64286 2.56418,0 4.64285,2.07868 4.64285,4.64286 z"
         sodipodi:ry="4.6428571"
         sodipodi:rx="4.6428571"
         sodipodi:cy="387.71933"
         sodipodi:cx="131.07143"
         id="path2987-4"
         style="fill:#ffffff;fill-opacity:1;stroke:#000000;stroke-width:1;stroke-miterlimit:4;stroke-opacity:1;stroke-dasharray:none;stroke-dashoffset:0"
         sodipodi:type="arc"
         transform="translate(0,23.928566)" />
      <path
         d="m 135.71428,387.71933 c 0,2.56418 -2.07867,4.64286 -4.64285,4.64286 -2.56418,0 -4.64286,-2.07868 -4.64286,-4.64286 0,-2.56418 2.07868,-4.64286 4.64286,-4.64286 2.56418,0 4.64285,2.07868 4.64285,4.64286 z"
         sodipodi:ry="4.6428571"
         sodipodi:rx="4.6428571"
         sodipodi:cy="387.71933"
         sodipodi:cx="131.07143"
         id="path2987-6"
         style="fill:#ffffff;fill-opacity:1;stroke:#000000;stroke-width:1;stroke-miterlimit:4;stroke-opacity:1;stroke-dasharray:none;stroke-dashoffset:0"
         sodipodi:type="arc"
         transform="translate(23.214288,11.964289)" />
      <path
         inkscape:connector-curvature="0"
         id="path3782"
         d="m 131.07143,392.36219 0,14.64285"
         style="fill:none;stroke:#000000;stroke-width:1px;stroke-linecap:butt;stroke-linejoin:miter;stroke-opacity:1" />
      <path
         inkscape:connector-curvature="0"
         id="path3784"
         d="m 135.71428,387.71933 18.57143,7.32143"
         style="fill:none;stroke:#000000;stroke-width:1px;stroke-linecap:butt;stroke-linejoin:miter;stroke-opacity:1" />
      <path
         inkscape:connector-curvature="0"
         id="path3786"
         d="m 135.71428,411.6479 18.57143,-7.32142"
         style="fill:none;stroke:#000000;stroke-width:1px;stroke-linecap:butt;stroke-linejoin:miter;stroke-opacity:1" />
    </g>
    <g
       id="g3821"
       transform="matrix(-1,0,0,-1,400.42858,797.76007)">
      <path
         d="m 135.71428,387.71933 c 0,2.56418 -2.07867,4.64286 -4.64285,4.64286 -2.56418,0 -4.64286,-2.07868 -4.64286,-4.64286 0,-2.56418 2.07868,-4.64286 4.64286,-4.64286 2.56418,0 4.64285,2.07868 4.64285,4.64286 z"
         sodipodi:ry="4.6428571"
         sodipodi:rx="4.6428571"
         sodipodi:cy="387.71933"
         sodipodi:cx="131.07143"
         id="path2987-65"
         style="fill:#ffffff;fill-opacity:1;stroke:#000000;stroke-width:1;stroke-miterlimit:4;stroke-opacity:1;stroke-dasharray:none;stroke-dashoffset:0"
         sodipodi:type="arc"
         transform="matrix(-1,0,0,-1,322.67857,773.83151)" />
      <path
         d="m 135.71428,387.71933 c 0,2.56418 -2.07867,4.64286 -4.64285,4.64286 -2.56418,0 -4.64286,-2.07868 -4.64286,-4.64286 0,-2.56418 2.07868,-4.64286 4.64286,-4.64286 2.56418,0 4.64285,2.07868 4.64285,4.64286 z"
         sodipodi:ry="4.6428571"
         sodipodi:rx="4.6428571"
         sodipodi:cy="387.71933"
         sodipodi:cx="131.07143"
         id="path2987-4-5"
         style="fill:#ffffff;fill-opacity:1;stroke:#000000;stroke-width:1;stroke-miterlimit:4;stroke-opacity:1;stroke-dasharray:none;stroke-dashoffset:0"
         sodipodi:type="arc"
         transform="matrix(-1,0,0,-1,322.67857,797.76007)" />
      <path
         d="m 135.71428,387.71933 c 0,2.56418 -2.07867,4.64286 -4.64285,4.64286 -2.56418,0 -4.64286,-2.07868 -4.64286,-4.64286 0,-2.56418 2.07868,-4.64286 4.64286,-4.64286 2.56418,0 4.64285,2.07868 4.64285,4.64286 z"
         sodipodi:ry="4.6428571"
         sodipodi:rx="4.6428571"
         sodipodi:cy="387.71933"
         sodipodi:cx="131.07143"
         id="path2987-6-2"
         style="fill:#ffffff;fill-opacity:1;stroke:#000000;stroke-width:1;stroke-miterlimit:4;stroke-opacity:1;stroke-dasharray:none;stroke-dashoffset:0"
         sodipodi:type="arc"
         transform="matrix(-1,0,0,-1,345.89286,785.7958)" />
      <path
         inkscape:connector-curvature="0"
         id="path3782-9"
         d="m 191.60714,405.39788 0,-14.64285"
         style="fill:none;stroke:#000000;stroke-width:1px;stroke-linecap:butt;stroke-linejoin:miter;stroke-opacity:1" />
      <path
         inkscape:connector-curvature="0"
         id="path3784-1"
         d="M 214.82143,393.43361 196.25,386.11218"
         style="fill:none;stroke:#000000;stroke-width:1px;stroke-linecap:butt;stroke-linejoin:miter;stroke-opacity:1" />
      <path
         inkscape:connector-curvature="0"
         id="path3786-6"
         d="M 214.82142,402.71933 196.25,410.04075"
         style="fill:none;stroke:#000000;stroke-width:1px;stroke-linecap:butt;stroke-linejoin:miter;stroke-opacity:1" />
    </g>
    <path
       style="fill:none;stroke:#000000;stroke-width:1px;stroke-linecap:butt;stroke-linejoin:miter;stroke-opacity:1"
       d="m 158.92857,399.68362 22.03572,-2e-5"
       id="path3837"
       inkscape:connector-curvature="0" />
  </g>
</svg>
