<?xml version="1.0" encoding="UTF-8" standalone="no"?>
<!-- Created with Inkscape (http://www.inkscape.org/) -->

<svg
   xmlns:dc="http://purl.org/dc/elements/1.1/"
   xmlns:cc="http://creativecommons.org/ns#"
   xmlns:rdf="http://www.w3.org/1999/02/22-rdf-syntax-ns#"
   xmlns:svg="http://www.w3.org/2000/svg"
   xmlns="http://www.w3.org/2000/svg"
   xmlns:sodipodi="http://sodipodi.sourceforge.net/DTD/sodipodi-0.dtd"
   xmlns:inkscape="http://www.inkscape.org/namespaces/inkscape"
   width="121.71429"
   height="84"
   id="svg2"
   version="1.1"
   inkscape:version="0.48.4 r9939"
   sodipodi:docname="New document 1">
  <defs
     id="defs4" />
  <sodipodi:namedview
     id="base"
     pagecolor="#ffffff"
     bordercolor="#666666"
     borderopacity="1.0"
     inkscape:pageopacity="0.0"
     inkscape:pageshadow="2"
     inkscape:zoom="1.4"
     inkscape:cx="200.09941"
     inkscape:cy="-27.080552"
     inkscape:document-units="px"
     inkscape:current-layer="layer1"
     showgrid="false"
     inkscape:object-paths="false"
     inkscape:snap-intersection-paths="false"
     inkscape:object-nodes="true"
     inkscape:snap-smooth-nodes="false"
     showborder="true"
     fit-margin-top="0"
     fit-margin-left="0"
     fit-margin-right="0"
     fit-margin-bottom="0"
     inkscape:window-width="1598"
     inkscape:window-height="862"
     inkscape:window-x="0"
     inkscape:window-y="37"
     inkscape:window-maximized="0" />
  <metadata
     id="metadata7">
    <rdf:RDF>
      <cc:Work
         rdf:about="">
        <dc:format>image/svg+xml</dc:format>
        <dc:type
           rdf:resource="http://purl.org/dc/dcmitype/StillImage" />
        <dc:title></dc:title>
      </cc:Work>
    </rdf:RDF>
  </metadata>
  <g
     inkscape:label="Layer 1"
     inkscape:groupmode="layer"
     id="layer1"
     transform="translate(-91.642855,-466.00504)">
    <path
       sodipodi:type="arc"
       style="fill:#ffffff;fill-opacity:1;stroke:#000000;stroke-width:1;stroke-miterlimit:4;stroke-opacity:1;stroke-dasharray:none;stroke-dashoffset:0"
       id="path2985"
       sodipodi:cx="98.571426"
       sodipodi:cy="508.07648"
       sodipodi:rx="6.4285712"
       sodipodi:ry="6.4285712"
       d="m 105,508.07648 c 0,3.5504 -2.87817,6.42857 -6.428574,6.42857 -3.550401,0 -6.428571,-2.87817 -6.428571,-6.42857 0,-3.5504 2.87817,-6.42857 6.428571,-6.42857 3.550404,0 6.428574,2.87817 6.428574,6.42857 z" />
    <path
       transform="translate(53.928574,34.999991)"
       sodipodi:type="arc"
       style="fill:#ffffff;fill-opacity:1;stroke:#000000;stroke-width:1;stroke-miterlimit:4;stroke-opacity:1;stroke-dasharray:none;stroke-dashoffset:0"
       id="path2985-6"
       sodipodi:cx="98.571426"
       sodipodi:cy="508.07648"
       sodipodi:rx="6.4285712"
       sodipodi:ry="6.4285712"
       d="m 105,508.07648 c 0,3.5504 -2.87817,6.42857 -6.428574,6.42857 -3.550401,0 -6.428571,-2.87817 -6.428571,-6.42857 0,-3.5504 2.87817,-6.42857 6.428571,-6.42857 3.550404,0 6.428574,2.87817 6.428574,6.42857 z" />
    <path
       transform="translate(53.928574,0)"
       sodipodi:type="arc"
       style="fill:#ffffff;fill-opacity:1;stroke:#000000;stroke-width:1;stroke-miterlimit:4;stroke-opacity:1;stroke-dasharray:none;stroke-dashoffset:0"
       id="path2985-8"
       sodipodi:cx="98.571426"
       sodipodi:cy="508.07648"
       sodipodi:rx="6.4285712"
       sodipodi:ry="6.4285712"
       d="m 105,508.07648 c 0,3.5504 -2.87817,6.42857 -6.428574,6.42857 -3.550401,0 -6.428571,-2.87817 -6.428571,-6.42857 0,-3.5504 2.87817,-6.42857 6.428571,-6.42857 3.550404,0 6.428574,2.87817 6.428574,6.42857 z" />
    <path
       transform="translate(53.928574,-35.142867)"
       sodipodi:type="arc"
       style="fill:#ffffff;fill-opacity:1;stroke:#000000;stroke-width:1;stroke-miterlimit:4;stroke-opacity:1;stroke-dasharray:none;stroke-dashoffset:0"
       id="path2985-69"
       sodipodi:cx="98.571426"
       sodipodi:cy="508.07648"
       sodipodi:rx="6.4285712"
       sodipodi:ry="6.4285712"
       d="m 105,508.07648 c 0,3.5504 -2.87817,6.42857 -6.428574,6.42857 -3.550401,0 -6.428571,-2.87817 -6.428571,-6.42857 0,-3.5504 2.87817,-6.42857 6.428571,-6.42857 3.550404,0 6.428574,2.87817 6.428574,6.42857 z" />
    <path
       transform="translate(107.85715,0)"
       sodipodi:type="arc"
       style="fill:#ffffff;fill-opacity:1;stroke:#000000;stroke-width:1;stroke-miterlimit:4;stroke-opacity:1;stroke-dasharray:none;stroke-dashoffset:0"
       id="path2985-9"
       sodipodi:cx="98.571426"
       sodipodi:cy="508.07648"
       sodipodi:rx="6.4285712"
       sodipodi:ry="6.4285712"
       d="m 105,508.07648 c 0,3.5504 -2.87817,6.42857 -6.428574,6.42857 -3.550401,0 -6.428571,-2.87817 -6.428571,-6.42857 0,-3.5504 2.87817,-6.42857 6.428571,-6.42857 3.550404,0 6.428574,2.87817 6.428574,6.42857 z" />
    <path
       style="fill:none;stroke:#000000;stroke-width:1px;stroke-linecap:butt;stroke-linejoin:miter;stroke-opacity:1"
       d="m 105,508.07648 41.07143,-35.14287"
       id="path3026"
       inkscape:connector-curvature="0" />
    <path
       style="fill:none;stroke:#000000;stroke-width:1px;stroke-linecap:butt;stroke-linejoin:miter;stroke-opacity:1"
       d="m 105,508.07648 41.07143,34.99999 0,0"
       id="path3028"
       inkscape:connector-curvature="0" />
    <path
       style="fill:none;stroke:#000000;stroke-width:1px;stroke-linecap:butt;stroke-linejoin:miter;stroke-opacity:1"
       d="m 105,508.07648 41.07143,0"
       id="path3030"
       inkscape:connector-curvature="0" />
    <path
       style="fill:none;stroke:#000000;stroke-width:1px;stroke-linecap:butt;stroke-linejoin:miter;stroke-opacity:1"
       d="m 158.92857,472.93361 41.07144,35.14287 c 0,0 -19.28572,-15.71428 -41.07144,0"
       id="path3127"
       inkscape:connector-curvature="0" />
    <path
       style="fill:none;stroke:#000000;stroke-width:1px;stroke-linecap:butt;stroke-linejoin:miter;stroke-opacity:1"
       d="m 158.92857,543.21936 41.07144,-35.14288 c 0,0 -19.28572,15.71429 -41.07144,0"
       id="path3127-4"
       inkscape:connector-curvature="0" />
    <path
       style="fill:none;stroke:#000000;stroke-width:1px;stroke-linecap:butt;stroke-linejoin:miter;stroke-opacity:1"
       d="m 200.00001,508.07648 c 0,0 2.14285,37.14285 -41.07144,34.99999"
       id="path3165"
       inkscape:connector-curvature="0" />
    <path
       style="fill:none;stroke:#000000;stroke-width:1px;stroke-linecap:butt;stroke-linejoin:miter;stroke-opacity:1"
       d="m 200.00001,507.9336 c 0,0 2.14285,-37.14285 -41.07144,-34.99999"
       id="path3165-8"
       inkscape:connector-curvature="0" />
  </g>
</svg>
