<?xml version="1.0" encoding="UTF-8" standalone="no"?>
<!-- Created with Inkscape (http://www.inkscape.org/) -->

<svg
   xmlns:dc="http://purl.org/dc/elements/1.1/"
   xmlns:cc="http://creativecommons.org/ns#"
   xmlns:rdf="http://www.w3.org/1999/02/22-rdf-syntax-ns#"
   xmlns:svg="http://www.w3.org/2000/svg"
   xmlns="http://www.w3.org/2000/svg"
   version="1.1"
   width="121.71429"
   height="84"
   id="svg2">
  <defs
     id="defs4" />
  <metadata
     id="metadata7">
    <rdf:RDF>
      <cc:Work
         rdf:about="">
        <dc:format>image/svg+xml</dc:format>
        <dc:type
           rdf:resource="http://purl.org/dc/dcmitype/StillImage" />
        <dc:title></dc:title>
      </cc:Work>
    </rdf:RDF>
  </metadata>
  <g
     transform="translate(-91.642855,-466.00504)"
     id="layer1">
    <path
       d="m 105,508.07648 a 6.4285712,6.4285712 0 1 1 -12.857145,0 6.4285712,6.4285712 0 1 1 12.857145,0 z"
       id="path2985"
       style="fill:#ffffff;fill-opacity:1;stroke:#000000;stroke-width:1;stroke-miterlimit:4;stroke-opacity:1;stroke-dasharray:none;stroke-dashoffset:0" />
    <path
       d="m 105,508.07648 a 6.4285712,6.4285712 0 1 1 -12.857145,0 6.4285712,6.4285712 0 1 1 12.857145,0 z"
       transform="translate(53.928574,34.999991)"
       id="path2985-6"
       style="fill:#ffffff;fill-opacity:1;stroke:#000000;stroke-width:1;stroke-miterlimit:4;stroke-opacity:1;stroke-dasharray:none;stroke-dashoffset:0" />
    <path
       d="m 105,508.07648 a 6.4285712,6.4285712 0 1 1 -12.857145,0 6.4285712,6.4285712 0 1 1 12.857145,0 z"
       transform="translate(53.928574,0)"
       id="path2985-8"
       style="fill:#ffffff;fill-opacity:1;stroke:#000000;stroke-width:1;stroke-miterlimit:4;stroke-opacity:1;stroke-dasharray:none;stroke-dashoffset:0" />
    <path
       d="m 105,508.07648 a 6.4285712,6.4285712 0 1 1 -12.857145,0 6.4285712,6.4285712 0 1 1 12.857145,0 z"
       transform="translate(53.928574,-35.142867)"
       id="path2985-69"
       style="fill:#ffffff;fill-opacity:1;stroke:#000000;stroke-width:1;stroke-miterlimit:4;stroke-opacity:1;stroke-dasharray:none;stroke-dashoffset:0" />
    <path
       d="m 105,508.07648 a 6.4285712,6.4285712 0 1 1 -12.857145,0 6.4285712,6.4285712 0 1 1 12.857145,0 z"
       transform="translate(107.85715,0)"
       id="path2985-9"
       style="fill:#ffffff;fill-opacity:1;stroke:#000000;stroke-width:1;stroke-miterlimit:4;stroke-opacity:1;stroke-dasharray:none;stroke-dashoffset:0" />
    <path
       d="m 105,508.07648 41.07143,-35.14287"
       id="path3026"
       style="fill:none;stroke:#000000;stroke-width:1px;stroke-linecap:butt;stroke-linejoin:miter;stroke-opacity:1" />
    <path
       d="m 105,508.07648 41.07143,34.99999 0,0"
       id="path3028"
       style="fill:none;stroke:#000000;stroke-width:1px;stroke-linecap:butt;stroke-linejoin:miter;stroke-opacity:1" />
    <path
       d="m 105,508.07648 41.07143,0"
       id="path3030"
       style="fill:none;stroke:#000000;stroke-width:1px;stroke-linecap:butt;stroke-linejoin:miter;stroke-opacity:1" />
    <path
       d="m 67.285717,6.9285701 41.071433,35.1428669 -41.071433,0"
       transform="translate(91.642855,466.00504)"
       id="path2994"
       style="fill:none;stroke:#000000;stroke-width:1px;stroke-linecap:butt;stroke-linejoin:miter;stroke-opacity:1" />
    <path
       d="M 67.285717,77.071428 108.35715,42.071437"
       transform="translate(91.642855,466.00504)"
       id="path2996"
       style="fill:none;stroke:#000000;stroke-width:1px;stroke-linecap:butt;stroke-linejoin:miter;stroke-opacity:1" />
  </g>
</svg>
