<?xml version="1.0" encoding="UTF-8" standalone="no"?>
<!-- Created with Inkscape (http://www.inkscape.org/) -->

<svg
   xmlns:dc="http://purl.org/dc/elements/1.1/"
   xmlns:cc="http://creativecommons.org/ns#"
   xmlns:rdf="http://www.w3.org/1999/02/22-rdf-syntax-ns#"
   xmlns:svg="http://www.w3.org/2000/svg"
   xmlns="http://www.w3.org/2000/svg"
   xmlns:sodipodi="http://sodipodi.sourceforge.net/DTD/sodipodi-0.dtd"
   xmlns:inkscape="http://www.inkscape.org/namespaces/inkscape"
   width="360.46432"
   height="75.642876"
   id="svg2"
   version="1.1"
   inkscape:version="0.48.4 r9939"
   sodipodi:docname="New document 1">
  <defs
     id="defs4" />
  <sodipodi:namedview
     id="base"
     pagecolor="#ffffff"
     bordercolor="#666666"
     borderopacity="1.0"
     inkscape:pageopacity="0.0"
     inkscape:pageshadow="2"
     inkscape:zoom="1.4"
     inkscape:cx="100.46271"
     inkscape:cy="-12.857612"
     inkscape:document-units="px"
     inkscape:current-layer="layer1"
     showgrid="false"
     inkscape:object-paths="true"
     inkscape:snap-intersection-paths="true"
     inkscape:object-nodes="true"
     inkscape:snap-smooth-nodes="true"
     fit-margin-top="0"
     fit-margin-left="0"
     fit-margin-right="0"
     fit-margin-bottom="0"
     inkscape:window-width="1598"
     inkscape:window-height="862"
     inkscape:window-x="0"
     inkscape:window-y="37"
     inkscape:window-maximized="0" />
  <metadata
     id="metadata7">
    <rdf:RDF>
      <cc:Work
         rdf:about="">
        <dc:format>image/svg+xml</dc:format>
        <dc:type
           rdf:resource="http://purl.org/dc/dcmitype/StillImage" />
        <dc:title></dc:title>
      </cc:Work>
    </rdf:RDF>
  </metadata>
  <g
     inkscape:label="Layer 1"
     inkscape:groupmode="layer"
     id="layer1"
     transform="translate(-138.07143,-538.29073)">
    <g
       id="g3089"
       transform="translate(23.571429,0)">
      <path
         transform="translate(-109.28571,5)"
         d="m 240.71429,542.7193 c 0,4.53662 -3.67767,8.21429 -8.21429,8.21429 -4.53662,0 -8.21429,-3.67767 -8.21429,-8.21429 0,-4.53663 3.67767,-8.21429 8.21429,-8.21429 4.53662,0 8.21429,3.67766 8.21429,8.21429 z"
         sodipodi:ry="8.2142859"
         sodipodi:rx="8.2142859"
         sodipodi:cy="542.7193"
         sodipodi:cx="232.5"
         id="path2987"
         style="fill:#ffffff;fill-opacity:1;stroke:#000000;stroke-width:1;stroke-miterlimit:4;stroke-opacity:1;stroke-dasharray:none;stroke-dashoffset:0"
         sodipodi:type="arc" />
      <path
         transform="translate(-32.5,62.500022)"
         d="m 240.71429,542.7193 c 0,4.53662 -3.67767,8.21429 -8.21429,8.21429 -4.53662,0 -8.21429,-3.67767 -8.21429,-8.21429 0,-4.53663 3.67767,-8.21429 8.21429,-8.21429 4.53662,0 8.21429,3.67766 8.21429,8.21429 z"
         sodipodi:ry="8.2142859"
         sodipodi:rx="8.2142859"
         sodipodi:cy="542.7193"
         sodipodi:cx="232.5"
         id="path2987-7"
         style="fill:#ffffff;fill-opacity:1;stroke:#000000;stroke-width:1;stroke-miterlimit:4;stroke-opacity:1;stroke-dasharray:none;stroke-dashoffset:0"
         sodipodi:type="arc" />
      <path
         transform="translate(-33.928571,5)"
         d="m 240.71429,542.7193 c 0,4.53662 -3.67767,8.21429 -8.21429,8.21429 -4.53662,0 -8.21429,-3.67767 -8.21429,-8.21429 0,-4.53663 3.67767,-8.21429 8.21429,-8.21429 4.53662,0 8.21429,3.67766 8.21429,8.21429 z"
         sodipodi:ry="8.2142859"
         sodipodi:rx="8.2142859"
         sodipodi:cy="542.7193"
         sodipodi:cx="232.5"
         id="path2987-8"
         style="fill:#ffffff;fill-opacity:1;stroke:#000000;stroke-width:1;stroke-miterlimit:4;stroke-opacity:1;stroke-dasharray:none;stroke-dashoffset:0"
         sodipodi:type="arc" />
      <path
         transform="translate(-69.642856,33.750007)"
         d="m 240.71429,542.7193 c 0,4.53662 -3.67767,8.21429 -8.21429,8.21429 -4.53662,0 -8.21429,-3.67767 -8.21429,-8.21429 0,-4.53663 3.67767,-8.21429 8.21429,-8.21429 4.53662,0 8.21429,3.67766 8.21429,8.21429 z"
         sodipodi:ry="8.2142859"
         sodipodi:rx="8.2142859"
         sodipodi:cy="542.7193"
         sodipodi:cx="232.5"
         id="path2987-2"
         style="fill:#ffffff;fill-opacity:1;stroke:#000000;stroke-width:1;stroke-miterlimit:4;stroke-opacity:1;stroke-dasharray:none;stroke-dashoffset:0"
         sodipodi:type="arc" />
      <path
         transform="translate(-109.28571,62.500022)"
         d="m 240.71429,542.7193 c 0,4.53662 -3.67767,8.21429 -8.21429,8.21429 -4.53662,0 -8.21429,-3.67767 -8.21429,-8.21429 0,-4.53663 3.67767,-8.21429 8.21429,-8.21429 4.53662,0 8.21429,3.67766 8.21429,8.21429 z"
         sodipodi:ry="8.2142859"
         sodipodi:rx="8.2142859"
         sodipodi:cy="542.7193"
         sodipodi:cx="232.5"
         id="path2987-9"
         style="fill:#ffffff;fill-opacity:1;stroke:#000000;stroke-width:1;stroke-miterlimit:4;stroke-opacity:1;stroke-dasharray:none;stroke-dashoffset:0"
         sodipodi:type="arc" />
      <path
         inkscape:connector-curvature="0"
         id="path3034"
         d="m 123.21429,555.93359 0,41.07145 31.42857,-20.53573 z"
         style="fill:none;stroke:#000000;stroke-width:1px;stroke-linecap:butt;stroke-linejoin:miter;stroke-opacity:1" />
      <path
         inkscape:connector-curvature="0"
         id="path3036"
         d="m 171.07143,576.46931 27.5,-20.53572"
         style="fill:none;stroke:#000000;stroke-width:1px;stroke-linecap:butt;stroke-linejoin:miter;stroke-opacity:1" />
      <path
         inkscape:connector-curvature="0"
         id="path3038"
         d="M 200,597.00504 171.07143,576.46931"
         style="fill:none;stroke:#000000;stroke-width:1px;stroke-linecap:butt;stroke-linejoin:miter;stroke-opacity:1" />
    </g>
    <path
       sodipodi:type="arc"
       style="fill:#ffffff;fill-opacity:1;stroke:#000000;stroke-width:1;stroke-miterlimit:4;stroke-opacity:1;stroke-dasharray:none;stroke-dashoffset:0"
       id="path2987-94"
       sodipodi:cx="232.5"
       sodipodi:cy="542.7193"
       sodipodi:rx="8.2142859"
       sodipodi:ry="8.2142859"
       d="m 240.71429,542.7193 c 0,4.53662 -3.67767,8.21429 -8.21429,8.21429 -4.53662,0 -8.21429,-3.67767 -8.21429,-8.21429 0,-4.53663 3.67767,-8.21429 8.21429,-8.21429 4.53662,0 8.21429,3.67766 8.21429,8.21429 z"
       transform="translate(47.410742,5.000001)" />
    <path
       sodipodi:type="arc"
       style="fill:#ffffff;fill-opacity:1;stroke:#000000;stroke-width:1;stroke-miterlimit:4;stroke-opacity:1;stroke-dasharray:none;stroke-dashoffset:0"
       id="path2987-7-2"
       sodipodi:cx="232.5"
       sodipodi:cy="542.7193"
       sodipodi:rx="8.2142859"
       sodipodi:ry="8.2142859"
       d="m 240.71429,542.7193 c 0,4.53662 -3.67767,8.21429 -8.21429,8.21429 -4.53662,0 -8.21429,-3.67767 -8.21429,-8.21429 0,-4.53663 3.67767,-8.21429 8.21429,-8.21429 4.53662,0 8.21429,3.67766 8.21429,8.21429 z"
       transform="translate(124.19646,62.500021)" />
    <path
       sodipodi:type="arc"
       style="fill:#ffffff;fill-opacity:1;stroke:#000000;stroke-width:1;stroke-miterlimit:4;stroke-opacity:1;stroke-dasharray:none;stroke-dashoffset:0"
       id="path2987-8-9"
       sodipodi:cx="232.5"
       sodipodi:cy="542.7193"
       sodipodi:rx="8.2142859"
       sodipodi:ry="8.2142859"
       d="m 240.71429,542.7193 c 0,4.53662 -3.67767,8.21429 -8.21429,8.21429 -4.53662,0 -8.21429,-3.67767 -8.21429,-8.21429 0,-4.53663 3.67767,-8.21429 8.21429,-8.21429 4.53662,0 8.21429,3.67766 8.21429,8.21429 z"
       transform="translate(122.76788,5.000001)" />
    <path
       sodipodi:type="arc"
       style="fill:#ffffff;fill-opacity:1;stroke:#000000;stroke-width:1;stroke-miterlimit:4;stroke-opacity:1;stroke-dasharray:none;stroke-dashoffset:0"
       id="path2987-2-4"
       sodipodi:cx="232.5"
       sodipodi:cy="542.7193"
       sodipodi:rx="8.2142859"
       sodipodi:ry="8.2142859"
       d="m 240.71429,542.7193 c 0,4.53662 -3.67767,8.21429 -8.21429,8.21429 -4.53662,0 -8.21429,-3.67767 -8.21429,-8.21429 0,-4.53663 3.67767,-8.21429 8.21429,-8.21429 4.53662,0 8.21429,3.67766 8.21429,8.21429 z"
       transform="translate(87.053592,33.750001)" />
    <path
       sodipodi:type="arc"
       style="fill:#ffffff;fill-opacity:1;stroke:#000000;stroke-width:1;stroke-miterlimit:4;stroke-opacity:1;stroke-dasharray:none;stroke-dashoffset:0"
       id="path2987-9-8"
       sodipodi:cx="232.5"
       sodipodi:cy="542.7193"
       sodipodi:rx="8.2142859"
       sodipodi:ry="8.2142859"
       d="m 240.71429,542.7193 c 0,4.53662 -3.67767,8.21429 -8.21429,8.21429 -4.53662,0 -8.21429,-3.67767 -8.21429,-8.21429 0,-4.53663 3.67767,-8.21429 8.21429,-8.21429 4.53662,0 8.21429,3.67766 8.21429,8.21429 z"
       transform="translate(47.410742,62.500021)" />
    <path
       style="fill:none;stroke:#000000;stroke-width:1px;stroke-linecap:butt;stroke-linejoin:miter;stroke-opacity:1"
       d="m 279.91074,555.93359 0,41.07145 31.42857,-20.53573 z"
       id="path3034-4"
       inkscape:connector-curvature="0" />
    <path
       sodipodi:type="arc"
       style="fill:#ffffff;fill-opacity:1;stroke:#000000;stroke-width:1;stroke-miterlimit:4;stroke-opacity:1;stroke-dasharray:none;stroke-dashoffset:0"
       id="path2987-94-0"
       sodipodi:cx="232.5"
       sodipodi:cy="542.7193"
       sodipodi:rx="8.2142859"
       sodipodi:ry="8.2142859"
       d="m 240.71429,542.7193 c 0,4.53662 -3.67767,8.21429 -8.21429,8.21429 -4.53662,0 -8.21429,-3.67767 -8.21429,-8.21429 0,-4.53663 3.67767,-8.21429 8.21429,-8.21429 4.53662,0 8.21429,3.67766 8.21429,8.21429 z"
       transform="translate(180.53575,4.285715)" />
    <path
       sodipodi:type="arc"
       style="fill:#ffffff;fill-opacity:1;stroke:#000000;stroke-width:1;stroke-miterlimit:4;stroke-opacity:1;stroke-dasharray:none;stroke-dashoffset:0"
       id="path2987-7-2-0"
       sodipodi:cx="232.5"
       sodipodi:cy="542.7193"
       sodipodi:rx="8.2142859"
       sodipodi:ry="8.2142859"
       d="m 240.71429,542.7193 c 0,4.53662 -3.67767,8.21429 -8.21429,8.21429 -4.53662,0 -8.21429,-3.67767 -8.21429,-8.21429 0,-4.53663 3.67767,-8.21429 8.21429,-8.21429 4.53662,0 8.21429,3.67766 8.21429,8.21429 z"
       transform="translate(257.32146,61.785735)" />
    <path
       sodipodi:type="arc"
       style="fill:#ffffff;fill-opacity:1;stroke:#000000;stroke-width:1;stroke-miterlimit:4;stroke-opacity:1;stroke-dasharray:none;stroke-dashoffset:0"
       id="path2987-8-9-7"
       sodipodi:cx="232.5"
       sodipodi:cy="542.7193"
       sodipodi:rx="8.2142859"
       sodipodi:ry="8.2142859"
       d="m 240.71429,542.7193 c 0,4.53662 -3.67767,8.21429 -8.21429,8.21429 -4.53662,0 -8.21429,-3.67767 -8.21429,-8.21429 0,-4.53663 3.67767,-8.21429 8.21429,-8.21429 4.53662,0 8.21429,3.67766 8.21429,8.21429 z"
       transform="translate(255.89288,4.285715)" />
    <path
       sodipodi:type="arc"
       style="fill:#ffffff;fill-opacity:1;stroke:#000000;stroke-width:1;stroke-miterlimit:4;stroke-opacity:1;stroke-dasharray:none;stroke-dashoffset:0"
       id="path2987-2-4-4"
       sodipodi:cx="232.5"
       sodipodi:cy="542.7193"
       sodipodi:rx="8.2142859"
       sodipodi:ry="8.2142859"
       d="m 240.71429,542.7193 c 0,4.53662 -3.67767,8.21429 -8.21429,8.21429 -4.53662,0 -8.21429,-3.67767 -8.21429,-8.21429 0,-4.53663 3.67767,-8.21429 8.21429,-8.21429 4.53662,0 8.21429,3.67766 8.21429,8.21429 z"
       transform="translate(220.17859,33.035715)" />
    <path
       sodipodi:type="arc"
       style="fill:#ffffff;fill-opacity:1;stroke:#000000;stroke-width:1;stroke-miterlimit:4;stroke-opacity:1;stroke-dasharray:none;stroke-dashoffset:0"
       id="path2987-9-8-4"
       sodipodi:cx="232.5"
       sodipodi:cy="542.7193"
       sodipodi:rx="8.2142859"
       sodipodi:ry="8.2142859"
       d="m 240.71429,542.7193 c 0,4.53662 -3.67767,8.21429 -8.21429,8.21429 -4.53662,0 -8.21429,-3.67767 -8.21429,-8.21429 0,-4.53663 3.67767,-8.21429 8.21429,-8.21429 4.53662,0 8.21429,3.67766 8.21429,8.21429 z"
       transform="translate(180.53575,61.785735)" />
    <path
       style="fill:none;stroke:#000000;stroke-width:1px;stroke-linecap:butt;stroke-linejoin:miter;stroke-opacity:1"
       d="m 413.03574,555.2193 0,41.07145 31.42857,-20.53573 z"
       id="path3034-4-6"
       inkscape:connector-curvature="0" />
    <path
       style="fill:none;stroke:#000000;stroke-width:1px;stroke-linecap:butt;stroke-linejoin:miter;stroke-opacity:1"
       d="m 288.12503,547.7193 58.92856,0"
       id="path3157"
       inkscape:connector-curvature="0" />
    <path
       style="fill:none;stroke:#000000;stroke-width:1px;stroke-linecap:butt;stroke-linejoin:miter;stroke-opacity:1"
       d="m 288.12503,605.21932 60.35714,0"
       id="path3161"
       inkscape:connector-curvature="0" />
    <path
       style="fill:none;stroke:#000000;stroke-width:1px;stroke-linecap:butt;stroke-linejoin:miter;stroke-opacity:1"
       d="m 421.25004,547.00501 58.92855,0"
       id="path3165"
       inkscape:connector-curvature="0" />
    <path
       style="fill:none;stroke:#000000;stroke-width:1px;stroke-linecap:butt;stroke-linejoin:miter;stroke-opacity:1"
       d="m 488.39288,555.2193 1.42858,41.07145"
       id="path3167"
       inkscape:connector-curvature="0" />
  </g>
</svg>
