<?xml version="1.0" encoding="UTF-8" standalone="no"?>
<!-- Created with Inkscape (http://www.inkscape.org/) -->

<svg
   xmlns:dc="http://purl.org/dc/elements/1.1/"
   xmlns:cc="http://creativecommons.org/ns#"
   xmlns:rdf="http://www.w3.org/1999/02/22-rdf-syntax-ns#"
   xmlns:svg="http://www.w3.org/2000/svg"
   xmlns="http://www.w3.org/2000/svg"
   xmlns:sodipodi="http://sodipodi.sourceforge.net/DTD/sodipodi-0.dtd"
   xmlns:inkscape="http://www.inkscape.org/namespaces/inkscape"
   width="266"
   height="80.285706"
   id="svg2"
   version="1.1"
   inkscape:version="0.48.4 r9939"
   sodipodi:docname="fig1.pdf">
  <defs
     id="defs4" />
  <sodipodi:namedview
     id="base"
     pagecolor="#ffffff"
     bordercolor="#666666"
     borderopacity="1.0"
     inkscape:pageopacity="0.0"
     inkscape:pageshadow="2"
     inkscape:zoom="2.8"
     inkscape:cx="77.506648"
     inkscape:cy="73.47657"
     inkscape:document-units="px"
     inkscape:current-layer="layer1"
     showgrid="false"
     inkscape:object-paths="true"
     inkscape:object-nodes="true"
     inkscape:snap-intersection-paths="true"
     inkscape:window-width="1598"
     inkscape:window-height="862"
     inkscape:window-x="0"
     inkscape:window-y="37"
     inkscape:window-maximized="0"
     fit-margin-top="0"
     fit-margin-left="0"
     fit-margin-right="0"
     fit-margin-bottom="0" />
  <metadata
     id="metadata7">
    <rdf:RDF>
      <cc:Work
         rdf:about="">
        <dc:format>image/svg+xml</dc:format>
        <dc:type
           rdf:resource="http://purl.org/dc/dcmitype/StillImage" />
        <dc:title></dc:title>
      </cc:Work>
    </rdf:RDF>
  </metadata>
  <g
     inkscape:label="Layer 1"
     inkscape:groupmode="layer"
     id="layer1"
     transform="translate(-95.214283,-277.57648)">
    <path
       sodipodi:type="arc"
       style="fill:#ffffff;fill-opacity:1;stroke:#000000;stroke-width:1;stroke-miterlimit:4;stroke-opacity:1;stroke-dasharray:none;stroke-dashoffset:0"
       id="path2991"
       sodipodi:cx="103.57143"
       sodipodi:cy="285.93362"
       sodipodi:rx="7.8571429"
       sodipodi:ry="7.8571429"
       d="m 111.42857,285.93362 c 0,4.33938 -3.51776,7.85715 -7.85714,7.85715 -4.339384,0 -7.857147,-3.51777 -7.857147,-7.85715 0,-4.33938 3.517763,-7.85714 7.857147,-7.85714 4.33938,0 7.85714,3.51776 7.85714,7.85714 z" />
    <path
       transform="translate(0,63.571415)"
       sodipodi:type="arc"
       style="fill:#ffffff;fill-opacity:1;stroke:#000000;stroke-width:1;stroke-miterlimit:4;stroke-opacity:1;stroke-dasharray:none;stroke-dashoffset:0"
       id="path2991-5"
       sodipodi:cx="103.57143"
       sodipodi:cy="285.93362"
       sodipodi:rx="7.8571429"
       sodipodi:ry="7.8571429"
       d="m 111.42857,285.93362 c 0,4.33938 -3.51776,7.85715 -7.85714,7.85715 -4.339384,0 -7.857147,-3.51777 -7.857147,-7.85715 0,-4.33938 3.517763,-7.85714 7.857147,-7.85714 4.33938,0 7.85714,3.51776 7.85714,7.85714 z" />
    <path
       transform="translate(172.14286,-4.2675781e-6)"
       sodipodi:type="arc"
       style="fill:#ffffff;fill-opacity:1;stroke:#000000;stroke-width:1;stroke-miterlimit:4;stroke-opacity:1;stroke-dasharray:none;stroke-dashoffset:0"
       id="path2991-4"
       sodipodi:cx="103.57143"
       sodipodi:cy="285.93362"
       sodipodi:rx="7.8571429"
       sodipodi:ry="7.8571429"
       d="m 111.42857,285.93362 c 0,4.33938 -3.51776,7.85715 -7.85714,7.85715 -4.339384,0 -7.857147,-3.51777 -7.857147,-7.85715 0,-4.33938 3.517763,-7.85714 7.857147,-7.85714 4.33938,0 7.85714,3.51776 7.85714,7.85714 z" />
    <path
       transform="translate(86.071432,0)"
       sodipodi:type="arc"
       style="fill:#ffffff;fill-opacity:1;stroke:#000000;stroke-width:1;stroke-miterlimit:4;stroke-opacity:1;stroke-dasharray:none;stroke-dashoffset:0"
       id="path2991-1"
       sodipodi:cx="103.57143"
       sodipodi:cy="285.93362"
       sodipodi:rx="7.8571429"
       sodipodi:ry="7.8571429"
       d="m 111.42857,285.93362 c 0,4.33938 -3.51776,7.85715 -7.85714,7.85715 -4.339384,0 -7.857147,-3.51777 -7.857147,-7.85715 0,-4.33938 3.517763,-7.85714 7.857147,-7.85714 4.33938,0 7.85714,3.51776 7.85714,7.85714 z" />
    <path
       transform="translate(86.071432,63.571415)"
       sodipodi:type="arc"
       style="fill:#ffffff;fill-opacity:1;stroke:#000000;stroke-width:1;stroke-miterlimit:4;stroke-opacity:1;stroke-dasharray:none;stroke-dashoffset:0"
       id="path2991-9"
       sodipodi:cx="103.57143"
       sodipodi:cy="285.93362"
       sodipodi:rx="7.8571429"
       sodipodi:ry="7.8571429"
       d="m 111.42857,285.93362 c 0,4.33938 -3.51776,7.85715 -7.85714,7.85715 -4.339384,0 -7.857147,-3.51777 -7.857147,-7.85715 0,-4.33938 3.517763,-7.85714 7.857147,-7.85714 4.33938,0 7.85714,3.51776 7.85714,7.85714 z" />
    <path
       transform="translate(172.14286,63.571416)"
       sodipodi:type="arc"
       style="fill:#ffffff;fill-opacity:1;stroke:#000000;stroke-width:1;stroke-miterlimit:4;stroke-opacity:1;stroke-dasharray:none;stroke-dashoffset:0"
       id="path2991-7"
       sodipodi:cx="103.57143"
       sodipodi:cy="285.93362"
       sodipodi:rx="7.8571429"
       sodipodi:ry="7.8571429"
       d="m 111.42857,285.93362 c 0,4.33938 -3.51776,7.85715 -7.85714,7.85715 -4.339384,0 -7.857147,-3.51777 -7.857147,-7.85715 0,-4.33938 3.517763,-7.85714 7.857147,-7.85714 4.33938,0 7.85714,3.51776 7.85714,7.85714 z" />
    <path
       style="fill:none;stroke:#ff0000;stroke-width:1px;stroke-linecap:butt;stroke-linejoin:miter;stroke-opacity:1"
       d="m 103.57143,293.79077 0,47.85713"
       id="path3039"
       inkscape:connector-curvature="0" />
    <path
       style="fill:none;stroke:#000000;stroke-width:1px;stroke-linecap:butt;stroke-linejoin:miter;stroke-opacity:1"
       d="m 111.42857,285.93362 70.35715,0"
       id="path3041"
       inkscape:connector-curvature="0" />
    <path
       style="fill:none;stroke:#000000;stroke-width:1;stroke-linecap:butt;stroke-linejoin:miter;stroke-miterlimit:4;stroke-opacity:1;stroke-dasharray:1, 1;stroke-dashoffset:0"
       d="m 197.5,285.93362 70.35714,0"
       id="path3043"
       inkscape:connector-curvature="0" />
    <path
       style="fill:none;stroke:#000000;stroke-width:1;stroke-linecap:butt;stroke-linejoin:miter;stroke-miterlimit:4;stroke-opacity:1;stroke-dasharray:1, 1;stroke-dashoffset:0"
       d="m 275.71429,293.79077 0,47.85713"
       id="path3045"
       inkscape:connector-curvature="0" />
    <path
       style="fill:none;stroke:#000000;stroke-width:1;stroke-linecap:butt;stroke-linejoin:miter;stroke-miterlimit:4;stroke-opacity:1;stroke-dasharray:1, 1;stroke-dashoffset:0"
       d="m 267.85714,349.50504 -70.35714,0"
       id="path3047"
       inkscape:connector-curvature="0" />
    <path
       style="fill:none;stroke:#00ff00;stroke-width:1px;stroke-linecap:butt;stroke-linejoin:miter;stroke-opacity:1"
       d="m 189.64286,341.6479 0,-47.85713"
       id="path3049"
       inkscape:connector-curvature="0" />
    <path
       style="fill:none;stroke:#000000;stroke-width:1px;stroke-linecap:butt;stroke-linejoin:miter;stroke-opacity:1"
       d="m 111.42857,349.50504 70.35715,0"
       id="path3051"
       inkscape:connector-curvature="0" />
    <path
       transform="translate(249.28572,-4.2675781e-6)"
       sodipodi:type="arc"
       style="fill:#ffffff;fill-opacity:1;stroke:#000000;stroke-width:1;stroke-miterlimit:4;stroke-opacity:1;stroke-dasharray:none;stroke-dashoffset:0"
       id="path2991-4-6"
       sodipodi:cx="103.57143"
       sodipodi:cy="285.93362"
       sodipodi:rx="7.8571429"
       sodipodi:ry="7.8571429"
       d="m 111.42857,285.93362 c 0,4.33938 -3.51776,7.85715 -7.85714,7.85715 -4.339384,0 -7.857147,-3.51777 -7.857147,-7.85715 0,-4.33938 3.517763,-7.85714 7.857147,-7.85714 4.33938,0 7.85714,3.51776 7.85714,7.85714 z" />
    <path
       transform="translate(249.28572,63.571416)"
       sodipodi:type="arc"
       style="fill:#ffffff;fill-opacity:1;stroke:#000000;stroke-width:1;stroke-miterlimit:4;stroke-opacity:1;stroke-dasharray:none;stroke-dashoffset:0"
       id="path2991-7-4"
       sodipodi:cx="103.57143"
       sodipodi:cy="285.93362"
       sodipodi:rx="7.8571429"
       sodipodi:ry="7.8571429"
       d="m 111.42857,285.93362 c 0,4.33938 -3.51776,7.85715 -7.85714,7.85715 -4.339384,0 -7.857147,-3.51777 -7.857147,-7.85715 0,-4.33938 3.517763,-7.85714 7.857147,-7.85714 4.33938,0 7.85714,3.51776 7.85714,7.85714 z" />
    <path
       style="fill:none;stroke:#000000;stroke-width:1px;stroke-linecap:butt;stroke-linejoin:miter;stroke-opacity:1"
       d="m 283.57143,285.93362 61.42857,0"
       id="path3842"
       inkscape:connector-curvature="0" />
    <path
       style="fill:none;stroke:#000000;stroke-width:1px;stroke-linecap:butt;stroke-linejoin:miter;stroke-opacity:1"
       d="m 352.85715,293.79076 0,47.85714"
       id="path3844"
       inkscape:connector-curvature="0" />
    <path
       style="fill:none;stroke:#000000;stroke-width:1px;stroke-linecap:butt;stroke-linejoin:miter;stroke-opacity:1"
       d="m 283.57143,349.50504 61.42857,0"
       id="path3846"
       inkscape:connector-curvature="0" />
  </g>
</svg>
