<?xml version="1.0" encoding="UTF-8" standalone="no"?>
<!-- Created with Inkscape (http://www.inkscape.org/) -->

<svg
   xmlns:dc="http://purl.org/dc/elements/1.1/"
   xmlns:cc="http://creativecommons.org/ns#"
   xmlns:rdf="http://www.w3.org/1999/02/22-rdf-syntax-ns#"
   xmlns:svg="http://www.w3.org/2000/svg"
   xmlns="http://www.w3.org/2000/svg"
   xmlns:sodipodi="http://sodipodi.sourceforge.net/DTD/sodipodi-0.dtd"
   xmlns:inkscape="http://www.inkscape.org/namespaces/inkscape"
   width="328.85715"
   height="278.85715"
   id="svg2"
   version="1.1"
   inkscape:version="0.48.4 r9939"
   sodipodi:docname="fig1.pdf">
  <defs
     id="defs4" />
  <sodipodi:namedview
     id="base"
     pagecolor="#ffffff"
     bordercolor="#666666"
     borderopacity="1.0"
     inkscape:pageopacity="0.0"
     inkscape:pageshadow="2"
     inkscape:zoom="1.4"
     inkscape:cx="110.79417"
     inkscape:cy="126.87446"
     inkscape:document-units="px"
     inkscape:current-layer="layer1"
     showgrid="false"
     inkscape:object-paths="true"
     inkscape:snap-intersection-paths="true"
     inkscape:object-nodes="true"
     inkscape:snap-smooth-nodes="true"
     inkscape:snap-midpoints="true"
     fit-margin-top="0"
     fit-margin-left="0"
     fit-margin-right="0"
     fit-margin-bottom="0"
     inkscape:window-width="1598"
     inkscape:window-height="862"
     inkscape:window-x="0"
     inkscape:window-y="37"
     inkscape:window-maximized="0" />
  <metadata
     id="metadata7">
    <rdf:RDF>
      <cc:Work
         rdf:about="">
        <dc:format>image/svg+xml</dc:format>
        <dc:type
           rdf:resource="http://purl.org/dc/dcmitype/StillImage" />
        <dc:title></dc:title>
      </cc:Work>
    </rdf:RDF>
  </metadata>
  <g
     inkscape:label="Layer 1"
     inkscape:groupmode="layer"
     id="layer1"
     transform="translate(-195.92857,-459.71933)">
    <path
       sodipodi:type="arc"
       style="fill:#ffffff;fill-opacity:1;stroke:#000000;stroke-width:1;stroke-miterlimit:4;stroke-opacity:1;stroke-dasharray:none;stroke-dashoffset:0"
       id="path2989"
       sodipodi:cx="297.14285"
       sodipodi:cy="662.36218"
       sodipodi:rx="18.571428"
       sodipodi:ry="18.571428"
       d="m 315.71428,662.36218 c 0,10.25672 -8.31471,18.57143 -18.57143,18.57143 -10.25671,0 -18.57143,-8.31471 -18.57143,-18.57143 0,-10.25671 8.31472,-18.57143 18.57143,-18.57143 10.25672,0 18.57143,8.31472 18.57143,18.57143 z"
       transform="translate(14.761902,0)" />
    <path
       transform="translate(111.66664,0)"
       sodipodi:type="arc"
       style="fill:#ffffff;fill-opacity:1;stroke:#000000;stroke-width:1;stroke-miterlimit:4;stroke-opacity:1;stroke-dasharray:none;stroke-dashoffset:0"
       id="path2989-2"
       sodipodi:cx="297.14285"
       sodipodi:cy="662.36218"
       sodipodi:rx="18.571428"
       sodipodi:ry="18.571428"
       d="m 315.71428,662.36218 c 0,10.25672 -8.31471,18.57143 -18.57143,18.57143 -10.25671,0 -18.57143,-8.31471 -18.57143,-18.57143 0,-10.25671 8.31472,-18.57143 18.57143,-18.57143 10.25672,0 18.57143,8.31472 18.57143,18.57143 z" />
    <path
       transform="translate(64.285745,-97.857134)"
       sodipodi:type="arc"
       style="fill:#ffffff;fill-opacity:1;stroke:#000000;stroke-width:1;stroke-miterlimit:4;stroke-opacity:1;stroke-dasharray:none;stroke-dashoffset:0"
       id="path2989-7"
       sodipodi:cx="297.14285"
       sodipodi:cy="662.36218"
       sodipodi:rx="18.571428"
       sodipodi:ry="18.571428"
       d="m 315.71428,662.36218 c 0,10.25672 -8.31471,18.57143 -18.57143,18.57143 -10.25671,0 -18.57143,-8.31471 -18.57143,-18.57143 0,-10.25671 8.31472,-18.57143 18.57143,-18.57143 10.25672,0 18.57143,8.31472 18.57143,18.57143 z" />
    <path
       transform="translate(64.285745,-183.57142)"
       sodipodi:type="arc"
       style="fill:#ffffff;fill-opacity:1;stroke:#000000;stroke-width:1;stroke-miterlimit:4;stroke-opacity:1;stroke-dasharray:none;stroke-dashoffset:0"
       id="path2989-7-6"
       sodipodi:cx="297.14285"
       sodipodi:cy="662.36218"
       sodipodi:rx="18.571428"
       sodipodi:ry="18.571428"
       d="m 315.71428,662.36218 c 0,10.25672 -8.31471,18.57143 -18.57143,18.57143 -10.25671,0 -18.57143,-8.31471 -18.57143,-18.57143 0,-10.25671 8.31472,-18.57143 18.57143,-18.57143 10.25672,0 18.57143,8.31472 18.57143,18.57143 z" />
    <path
       transform="translate(-82.142857,57.142856)"
       sodipodi:type="arc"
       style="fill:#ffffff;fill-opacity:1;stroke:#000000;stroke-width:1;stroke-miterlimit:4;stroke-opacity:1;stroke-dasharray:none;stroke-dashoffset:0"
       id="path2989-7-0"
       sodipodi:cx="297.14285"
       sodipodi:cy="662.36218"
       sodipodi:rx="18.571428"
       sodipodi:ry="18.571428"
       d="m 315.71428,662.36218 c 0,10.25672 -8.31471,18.57143 -18.57143,18.57143 -10.25671,0 -18.57143,-8.31471 -18.57143,-18.57143 0,-10.25671 8.31472,-18.57143 18.57143,-18.57143 10.25672,0 18.57143,8.31472 18.57143,18.57143 z" />
    <path
       transform="translate(208.57143,57.142856)"
       sodipodi:type="arc"
       style="fill:#ffffff;fill-opacity:1;stroke:#000000;stroke-width:1;stroke-miterlimit:4;stroke-opacity:1;stroke-dasharray:none;stroke-dashoffset:0"
       id="path2989-7-66"
       sodipodi:cx="297.14285"
       sodipodi:cy="662.36218"
       sodipodi:rx="18.571428"
       sodipodi:ry="18.571428"
       d="m 315.71428,662.36218 c 0,10.25672 -8.31471,18.57143 -18.57143,18.57143 -10.25671,0 -18.57143,-8.31471 -18.57143,-18.57143 0,-10.25671 8.31472,-18.57143 18.57143,-18.57143 10.25672,0 18.57143,8.31472 18.57143,18.57143 z" />
    <path
       style="fill:none;stroke:#000000;stroke-width:1px;stroke-linecap:butt;stroke-linejoin:miter;stroke-opacity:1"
       d="m 361.4286,583.07648 -49.52385,60.71427"
       id="path3824"
       inkscape:connector-curvature="0" />
    <path
       style="fill:none;stroke:#000000;stroke-width:1px;stroke-linecap:butt;stroke-linejoin:miter;stroke-opacity:1"
       d="M 408.80949,643.79075 361.4286,583.07648"
       id="path3826"
       inkscape:connector-curvature="0" />
    <path
       style="fill:none;stroke:#000000;stroke-width:1px;stroke-linecap:butt;stroke-linejoin:miter;stroke-opacity:1"
       d="m 330.47618,662.36218 59.76188,0"
       id="path3828"
       inkscape:connector-curvature="0" />
    <path
       style="fill:none;stroke:#000000;stroke-width:1px;stroke-linecap:butt;stroke-linejoin:miter;stroke-opacity:1"
       d="m 361.4286,497.36219 c 0,0 -87.6191,49.99998 -49.52385,146.42856"
       id="path3834"
       inkscape:connector-curvature="0" />
    <path
       style="fill:none;stroke:#000000;stroke-width:1px;stroke-linecap:butt;stroke-linejoin:miter;stroke-opacity:1"
       d="m 361.4286,497.36219 c 0,0 87.6191,49.99998 49.52385,146.42856"
       id="path3834-3"
       inkscape:connector-curvature="0" />
    <path
       style="fill:none;stroke:#000000;stroke-width:1px;stroke-linecap:butt;stroke-linejoin:miter;stroke-opacity:1"
       d="m 215,700.93361 c 0,0 63.57149,-115.71426 146.4286,-117.85713"
       id="path3854"
       inkscape:connector-curvature="0" />
    <path
       style="fill:none;stroke:#000000;stroke-width:1px;stroke-linecap:butt;stroke-linejoin:miter;stroke-opacity:1"
       d="m 233.57142,719.50504 c 0,0 126.43012,4.58361 156.66664,-57.14286"
       id="path3885"
       inkscape:connector-curvature="0" />
    <path
       style="fill:none;stroke:#000000;stroke-width:1px;stroke-linecap:butt;stroke-linejoin:miter;stroke-opacity:1"
       d="m 487.14282,719.50504 c 0,0 -126.43012,4.58361 -156.66664,-57.14286"
       id="path3885-1"
       inkscape:connector-curvature="0" />
    <path
       style="fill:none;stroke:#000000;stroke-width:1px;stroke-linecap:butt;stroke-linejoin:miter;stroke-opacity:1"
       d="m 507.8572,700.93361 c 0,0 -63.57149,-115.71426 -146.4286,-117.85713"
       id="path3854-3"
       inkscape:connector-curvature="0" />
  </g>
</svg>
