<?xml version="1.0" encoding="UTF-8" standalone="no"?>
<!-- Created with Inkscape (http://www.inkscape.org/) -->

<svg
   xmlns:dc="http://purl.org/dc/elements/1.1/"
   xmlns:cc="http://creativecommons.org/ns#"
   xmlns:rdf="http://www.w3.org/1999/02/22-rdf-syntax-ns#"
   xmlns:svg="http://www.w3.org/2000/svg"
   xmlns="http://www.w3.org/2000/svg"
   xmlns:sodipodi="http://sodipodi.sourceforge.net/DTD/sodipodi-0.dtd"
   xmlns:inkscape="http://www.inkscape.org/namespaces/inkscape"
   width="386.47266mm"
   height="125.54858mm"
   viewBox="0 0 1369.3913 444.85716"
   id="svg2"
   version="1.1"
   inkscape:version="0.48.4 r9939"
   sodipodi:docname="Clustering.pdf">
  <defs
     id="defs4">
    <marker
       inkscape:stockid="Arrow2Lend"
       orient="auto"
       refY="0"
       refX="0"
       id="Arrow2Lend"
       style="overflow:visible"
       inkscape:isstock="true">
      <path
         id="path4290"
         style="fill:#000000;fill-opacity:1;fill-rule:evenodd;stroke:#000000;stroke-width:0.625;stroke-linejoin:round;stroke-opacity:1"
         d="M 8.7185878,4.0337352 -2.2072895,0.01601326 8.7185884,-4.0017078 c -1.7454984,2.3720609 -1.7354408,5.6174519 -6e-7,8.035443 z"
         transform="matrix(-1.1,0,0,-1.1,-1.1,0)"
         inkscape:connector-curvature="0" />
    </marker>
    <inkscape:path-effect
       effect="spiro"
       id="path-effect4221"
       is_visible="true" />
  </defs>
  <sodipodi:namedview
     id="base"
     pagecolor="#ffffff"
     bordercolor="#666666"
     borderopacity="1.0"
     inkscape:pageopacity="0.0"
     inkscape:pageshadow="2"
     inkscape:zoom="0.35"
     inkscape:cx="249.11723"
     inkscape:cy="288.15367"
     inkscape:document-units="px"
     inkscape:current-layer="layer1"
     showgrid="false"
     fit-margin-top="0"
     fit-margin-left="0"
     fit-margin-right="0"
     fit-margin-bottom="0"
     showborder="true"
     inkscape:object-paths="true"
     inkscape:snap-intersection-paths="true"
     inkscape:object-nodes="true"
     inkscape:snap-smooth-nodes="true"
     inkscape:snap-midpoints="true"
     inkscape:snap-object-midpoints="true"
     inkscape:snap-center="true"
     inkscape:window-width="1596"
     inkscape:window-height="861"
     inkscape:window-x="0"
     inkscape:window-y="37"
     inkscape:window-maximized="0" />
  <metadata
     id="metadata7">
    <rdf:RDF>
      <cc:Work
         rdf:about="">
        <dc:format>image/svg+xml</dc:format>
        <dc:type
           rdf:resource="http://purl.org/dc/dcmitype/StillImage" />
        <dc:title></dc:title>
      </cc:Work>
    </rdf:RDF>
  </metadata>
  <g
     inkscape:label="Layer 1"
     inkscape:groupmode="layer"
     id="layer1"
     transform="translate(569.57146,-262.40048)">
    <circle
       style="fill:#9dde67;stroke:#000000;stroke-width:2;stroke-miterlimit:4;stroke-dasharray:none;stroke-opacity:1"
       id="path4138"
       cx="-414.28568"
       cy="372.36221"
       r="20"
       d="m -394.28568,372.36221 c 0,11.0457 -8.9543,20 -20,20 -11.04569,0 -20,-8.9543 -20,-20 0,-11.04569 8.95431,-20 20,-20 11.0457,0 20,8.95431 20,20 z" />
    <circle
       r="20"
       cy="466.64792"
       cx="-474.28571"
       id="circle4155"
       style="fill:#9dde67;stroke:#000000;stroke-width:2;stroke-miterlimit:4;stroke-dasharray:none;stroke-opacity:1"
       d="m -454.28571,466.64792 c 0,11.04569 -8.9543,20 -20,20 -11.04569,0 -20,-8.95431 -20,-20 0,-11.0457 8.95431,-20 20,-20 11.0457,0 20,8.9543 20,20 z" />
    <circle
       r="20"
       cy="552.36224"
       cx="-228.57143"
       id="circle4157"
       style="fill:#9dde67;stroke:#000000;stroke-width:2;stroke-miterlimit:4;stroke-dasharray:none;stroke-opacity:1"
       d="m -208.57143,552.36224 c 0,11.0457 -8.9543,20 -20,20 -11.04569,0 -20,-8.9543 -20,-20 0,-11.04569 8.95431,-20 20,-20 11.0457,0 20,8.95431 20,20 z" />
    <circle
       r="20"
       cy="359.55215"
       cx="-88.231773"
       id="circle4165"
       style="fill:#666ac2;stroke:#000000;stroke-width:2;stroke-miterlimit:4;stroke-dasharray:none;stroke-opacity:1"
       d="m -68.231773,359.55215 c 0,11.0457 -8.954305,20 -20,20 -11.045695,0 -19.999997,-8.9543 -19.999997,-20 0,-11.04569 8.954302,-20 19.999997,-20 11.045695,0 20,8.95431 20,20 z" />
    <circle
       style="fill:#666ac2;stroke:#000000;stroke-width:2;stroke-miterlimit:4;stroke-dasharray:none;stroke-opacity:1"
       id="circle4167"
       cx="-94.012848"
       cy="523.40045"
       r="20"
       d="m -74.012848,523.40045 c 0,11.0457 -8.954305,20 -20,20 -11.045692,0 -20.000002,-8.9543 -20.000002,-20 0,-11.04569 8.95431,-20 20.000002,-20 11.045695,0 20,8.95431 20,20 z" />
    <circle
       style="fill:#666ac2;stroke:#000000;stroke-width:2;stroke-miterlimit:4;stroke-dasharray:none;stroke-opacity:1"
       id="circle4171"
       cx="105.98715"
       cy="400.54333"
       r="20"
       d="m 125.98715,400.54333 c 0,11.0457 -8.9543,20 -20,20 -11.045693,0 -19.999998,-8.9543 -19.999998,-20 0,-11.04569 8.954305,-20 19.999998,-20 11.0457,0 20,8.95431 20,20 z" />
    <circle
       r="20"
       cy="560.5434"
       cx="185.98714"
       id="circle4173"
       style="fill:#666ac2;stroke:#000000;stroke-width:2;stroke-miterlimit:4;stroke-dasharray:none;stroke-opacity:1"
       d="m 205.98714,560.5434 c 0,11.04569 -8.95431,20 -20,20 -11.0457,0 -20,-8.95431 -20,-20 0,-11.0457 8.9543,-20 20,-20 11.04569,0 20,8.9543 20,20 z" />
    <circle
       style="fill:#666ac2;stroke:#000000;stroke-width:2;stroke-miterlimit:4;stroke-dasharray:none;stroke-opacity:1"
       id="circle4175"
       cx="63.129997"
       cy="509.11481"
       r="20"
       d="m 83.129997,509.11481 c 0,11.04569 -8.954305,20 -20,20 -11.045695,0 -20,-8.95431 -20,-20 0,-11.0457 8.954305,-20 20,-20 11.045695,0 20,8.9543 20,20 z" />
    <path
       style="fill:none;fill-rule:evenodd;stroke:#000000;stroke-width:2;stroke-linecap:butt;stroke-linejoin:miter;stroke-miterlimit:4;stroke-dasharray:8, 8;stroke-dashoffset:0;stroke-opacity:1;marker-end:url(#Arrow2Lend)"
       d="m -161.71431,485.21936 c 0,0 97.688614,-139.35205 164.5586047,-20.39032"
       id="path4263"
       inkscape:connector-curvature="0"
       sodipodi:nodetypes="cc" />
    <circle
       r="20"
       cy="485.21936"
       cx="-161.71431"
       id="circle4177"
       style="fill:#9dde67;stroke:#000000;stroke-width:2;stroke-miterlimit:4;stroke-dasharray:none;stroke-opacity:1"
       d="m -141.71431,485.21936 c 0,11.0457 -8.9543,20 -20,20 -11.04569,0 -20,-8.9543 -20,-20 0,-11.04569 8.95431,-20 20,-20 11.0457,0 20,8.95431 20,20 z" />
    <circle
       id="path4215"
       style="fill:#000000;stroke:none"
       cx="-434.02393"
       cy="688.89136"
       r="1.5"
       d="m -432.52393,688.89136 c 0,0.82842 -0.67157,1.5 -1.5,1.5 -0.82842,0 -1.5,-0.67158 -1.5,-1.5 0,-0.82843 0.67158,-1.5 1.5,-1.5 0.82843,0 1.5,0.67157 1.5,1.5 z" />
    <g
       id="g5381"
       transform="translate(0,-0.39032)">
      <path
         sodipodi:nodetypes="cc"
         inkscape:connector-curvature="0"
         inkscape:original-d="m -426.59864,678.35914 c 125.71428,80 85.38106,-203.67201 85.38106,-203.67201"
         inkscape:path-effect="#path-effect4221"
         id="path4219"
         d="m -426.59864,678.35914 85.38106,-203.67201"
         style="fill:none;fill-opacity:1;fill-rule:evenodd;stroke:#000000;stroke-width:5;stroke-linecap:butt;stroke-linejoin:miter;stroke-miterlimit:4;stroke-dasharray:10, 20;stroke-dashoffset:0;stroke-opacity:1" />
      <g
         id="g4241">
        <circle
           style="fill:#000000;stroke:#000000;stroke-width:2;stroke-miterlimit:4;stroke-dasharray:none;stroke-opacity:1"
           id="path4138-1"
           cx="-347.14288"
           cy="485.21936"
           r="20"
           d="m -327.14288,485.21936 c 0,11.0457 -8.95431,20 -20,20 -11.0457,0 -20,-8.9543 -20,-20 0,-11.04569 8.9543,-20 20,-20 11.04569,0 20,8.95431 20,20 z" />
        <circle
           style="fill:none;stroke:#000000;stroke-width:2;stroke-miterlimit:4;stroke-dasharray:none;stroke-opacity:1"
           id="path4181"
           cx="-347.14288"
           cy="485.21936"
           r="221.42857"
           d="m -125.71431,485.21936 c 0,122.29162 -99.13695,221.42857 -221.42857,221.42857 -122.29163,0 -221.42858,-99.13695 -221.42858,-221.42857 0,-122.29162 99.13695,-221.42857 221.42858,-221.42857 122.29162,0 221.42857,99.13695 221.42857,221.42857 z" />
      </g>
      <text
         sodipodi:linespacing="125%"
         id="text4231"
         y="614.76965"
         x="-369.5477"
         style="font-style:normal;font-weight:normal;font-size:50px;line-height:125%;font-family:sans-serif;letter-spacing:0px;word-spacing:0px;fill:#000000;fill-opacity:1;stroke:none;stroke-width:1px;stroke-linecap:butt;stroke-linejoin:miter;stroke-opacity:1"
         xml:space="preserve"><tspan
           id="tspan4235"
           y="614.76965"
           x="-369.5477"
           sodipodi:role="line">t</tspan></text>
    </g>
    <g
       id="g5389"
       transform="translate(359.98718,-0.39032)">
      <path
         style="fill:none;fill-opacity:1;fill-rule:evenodd;stroke:#000000;stroke-width:5;stroke-linecap:butt;stroke-linejoin:miter;stroke-miterlimit:4;stroke-dasharray:10, 20;stroke-dashoffset:0;stroke-opacity:1"
         d="m -426.59864,678.35914 85.38106,-203.67201"
         id="path5391"
         inkscape:path-effect="#path-effect4221"
         inkscape:original-d="m -426.59864,678.35914 c 125.71428,80 85.38106,-203.67201 85.38106,-203.67201"
         inkscape:connector-curvature="0"
         sodipodi:nodetypes="cc" />
      <g
         id="g5393">
        <circle
           r="20"
           cy="485.21936"
           cx="-347.14288"
           id="circle5395"
           style="fill:#000000;stroke:#000000;stroke-width:2;stroke-miterlimit:4;stroke-dasharray:none;stroke-opacity:1"
           d="m -327.14288,485.21936 c 0,11.0457 -8.95431,20 -20,20 -11.0457,0 -20,-8.9543 -20,-20 0,-11.04569 8.9543,-20 20,-20 11.04569,0 20,8.95431 20,20 z" />
        <circle
           r="221.42857"
           cy="485.21936"
           cx="-347.14288"
           id="circle5397"
           style="fill:none;stroke:#000000;stroke-width:2;stroke-miterlimit:4;stroke-dasharray:none;stroke-opacity:1"
           d="m -125.71431,485.21936 c 0,122.29162 -99.13695,221.42857 -221.42857,221.42857 -122.29163,0 -221.42858,-99.13695 -221.42858,-221.42857 0,-122.29162 99.13695,-221.42857 221.42858,-221.42857 122.29162,0 221.42857,99.13695 221.42857,221.42857 z" />
      </g>
      <text
         xml:space="preserve"
         style="font-style:normal;font-weight:normal;font-size:50px;line-height:125%;font-family:sans-serif;letter-spacing:0px;word-spacing:0px;fill:#000000;fill-opacity:1;stroke:none;stroke-width:1px;stroke-linecap:butt;stroke-linejoin:miter;stroke-opacity:1"
         x="-369.5477"
         y="614.76965"
         id="text5399"
         sodipodi:linespacing="125%"><tspan
           sodipodi:role="line"
           x="-369.5477"
           y="614.76965"
           id="tspan5401">t</tspan></text>
    </g>
    <circle
       r="20"
       cy="686.25763"
       cx="328.28577"
       id="circle5403"
       style="fill:#9dde67;stroke:#000000;stroke-width:2;stroke-miterlimit:4;stroke-dasharray:none;stroke-opacity:1"
       d="m 348.28577,686.25763 c 0,11.04569 -8.95431,20 -20,20 -11.0457,0 -20,-8.95431 -20,-20 0,-11.0457 8.9543,-20 20,-20 11.04569,0 20,8.9543 20,20 z" />
    <circle
       r="20"
       cy="686.25763"
       cx="380.28577"
       id="circle5405"
       style="fill:#666ac2;stroke:#000000;stroke-width:2;stroke-miterlimit:4;stroke-dasharray:none;stroke-opacity:1"
       d="m 400.28577,686.25763 c 0,11.04569 -8.95431,20 -20,20 -11.0457,0 -20,-8.95431 -20,-20 0,-11.0457 8.9543,-20 20,-20 11.04569,0 20,8.9543 20,20 z" />
    <circle
       style="fill:#000000;stroke:#000000;stroke-width:2;stroke-miterlimit:4;stroke-dasharray:none;stroke-opacity:1"
       id="circle5407"
       cx="328.28577"
       cy="616.25763"
       r="20"
       d="m 348.28577,616.25763 c 0,11.04569 -8.95431,20 -20,20 -11.0457,0 -20,-8.95431 -20,-20 0,-11.0457 8.9543,-20 20,-20 11.04569,0 20,8.9543 20,20 z" />
    <text
       xml:space="preserve"
       style="font-style:normal;font-weight:normal;font-size:40px;line-height:125%;font-family:sans-serif;letter-spacing:0px;word-spacing:0px;fill:#000000;fill-opacity:1;stroke:none;stroke-width:1px;stroke-linecap:butt;stroke-linejoin:miter;stroke-opacity:1"
       x="431.71432"
       y="698.93732"
       id="text5409"
       sodipodi:linespacing="125%"><tspan
         sodipodi:role="line"
         x="431.71432"
         y="698.93732"
         id="tspan5421">Member sequence</tspan></text>
    <text
       xml:space="preserve"
       style="font-style:normal;font-weight:normal;font-size:40px;line-height:125%;font-family:sans-serif;letter-spacing:0px;word-spacing:0px;fill:#000000;fill-opacity:1;stroke:none;stroke-width:1px;stroke-linecap:butt;stroke-linejoin:miter;stroke-opacity:1"
       x="433.14011"
       y="631.81238"
       id="text5417"
       sodipodi:linespacing="125%"><tspan
         sodipodi:role="line"
         id="tspan5419"
         x="433.14011"
         y="631.81238">Centroid</tspan></text>
    <text
       xml:space="preserve"
       style="font-style:normal;font-weight:normal;font-size:40px;line-height:125%;font-family:sans-serif;letter-spacing:0px;word-spacing:0px;fill:#000000;fill-opacity:1;stroke:none;stroke-width:1px;stroke-linecap:butt;stroke-linejoin:miter;stroke-opacity:1"
       x="315.42856"
       y="556.93359"
       id="text5425"
       sodipodi:linespacing="125%"><tspan
         sodipodi:role="line"
         id="tspan5427"
         x="315.42856"
         y="556.93359">t: Threshold similarity</tspan></text>
  </g>
</svg>
